<svg xmlns="http://www.w3.org/2000/svg" xmlns:xlink="http://www.w3.org/1999/xlink" width="500" zoomAndPan="magnify" viewBox="0 0 375 149.999998" height="200" preserveAspectRatio="xMidYMid meet" version="1.0"><defs><g/><clipPath id="id1"><path d="M 0 25.832031 L 375 25.832031 L 375 124.082031 L 0 124.082031 Z M 0 25.832031 " clip-rule="nonzero"/></clipPath></defs><g clip-path="url(#id1)"><path fill="#007fca" d="M 0 25.832031 L 375 25.832031 L 375 124.082031 L 0 124.082031 Z M 0 25.832031 " fill-opacity="1" fill-rule="nonzero"/></g><g fill="#121420" fill-opacity="1"><g transform="translate(43.018258, 69.000024)"><g><path d="M 44.472656 0 L 32.09375 0 L 16.792969 -21.359375 L 14.160156 -18.199219 L 14.160156 0 L 4.667969 0 L 4.667969 -54.464844 L 14.160156 -54.464844 L 14.160156 -32.949219 L 32.164062 -54.464844 L 44.566406 -54.464844 L 23 -28.773438 Z M 44.472656 0 "/></g></g></g><g fill="#121420" fill-opacity="1"><g transform="translate(88.64847, 69.000024)"><g><path d="M 36.710938 -54.464844 L 46.203125 -54.464844 L 46.203125 0 L 36.710938 0 L 36.710938 -24.429688 L 14.160156 -24.429688 L 14.160156 0 L 4.667969 0 L 4.667969 -54.464844 L 14.160156 -54.464844 L 14.160156 -33.921875 L 36.710938 -33.921875 Z M 36.710938 -54.464844 "/></g></g></g><g fill="#121420" fill-opacity="1"><g transform="translate(139.530238, 69.000024)"><g><path d="M 22.886719 -54.464844 L 33.804688 -54.464844 L 53.59375 0 L 43.523438 0 L 40.015625 -9.648438 L 16.6875 -9.648438 L 13.183594 0 L 3.113281 0 Z M 20.164062 -19.140625 L 36.527344 -19.140625 L 28.320312 -41.601562 Z M 20.164062 -19.140625 "/></g></g></g><g fill="#121420" fill-opacity="1"><g transform="translate(196.247074, 69.000024)"><g><path d="M 4.667969 0 L 4.667969 -54.464844 L 14.160156 -54.464844 L 14.160156 -9.492188 L 36.824219 -9.492188 L 36.824219 0 Z M 4.667969 0 "/></g></g></g><g fill="#121420" fill-opacity="1"><g transform="translate(236.975827, 69.000024)"><g><path d="M 4.667969 0 L 4.667969 -54.464844 L 38.824219 -54.464844 L 38.824219 -44.96875 L 14.160156 -44.96875 L 14.160156 -33.921875 L 33.710938 -33.921875 L 33.710938 -24.429688 L 14.160156 -24.429688 L 14.160156 -9.492188 L 38.824219 -9.492188 L 38.824219 0 Z M 4.667969 0 "/></g></g></g><g fill="#121420" fill-opacity="1"><g transform="translate(279.688517, 69.000024)"><g><path d="M 4.667969 0 L 4.667969 -54.464844 L 22.707031 -54.464844 C 26.464844 -54.464844 29.988281 -53.757812 33.273438 -52.34375 C 36.558594 -50.929688 39.453125 -48.972656 41.949219 -46.46875 C 44.449219 -43.964844 46.402344 -41.074219 47.816406 -37.792969 C 49.230469 -34.511719 49.9375 -30.992188 49.9375 -27.230469 C 49.9375 -23.472656 49.230469 -19.949219 47.816406 -16.667969 C 46.402344 -13.390625 44.449219 -10.496094 41.949219 -7.996094 C 39.453125 -5.492188 36.558594 -3.535156 33.273438 -2.121094 C 29.988281 -0.707031 26.464844 0 22.707031 0 Z M 14.160156 -9.492188 L 22.707031 -9.492188 C 25.125 -9.492188 27.398438 -9.953125 29.535156 -10.867188 C 31.671875 -11.785156 33.558594 -13.058594 35.203125 -14.683594 C 36.847656 -16.308594 38.128906 -18.195312 39.054688 -20.339844 C 39.980469 -22.480469 40.445312 -24.78125 40.445312 -27.230469 C 40.445312 -29.683594 39.980469 -31.976562 39.054688 -34.113281 C 38.128906 -36.246094 36.847656 -38.132812 35.207031 -39.765625 C 33.570312 -41.402344 31.683594 -42.675781 29.554688 -43.59375 C 27.421875 -44.511719 25.140625 -44.96875 22.707031 -44.96875 L 14.160156 -44.96875 Z M 14.160156 -9.492188 "/></g></g></g><g fill="#121420" fill-opacity="1"><g transform="translate(25.498728, 135.75002)"><g><path d="M 4.667969 0 L 4.667969 -54.464844 L 38.824219 -54.464844 L 38.824219 -44.96875 L 14.160156 -44.96875 L 14.160156 -33.921875 L 33.710938 -33.921875 L 33.710938 -24.429688 L 14.160156 -24.429688 L 14.160156 -9.492188 L 38.824219 -9.492188 L 38.824219 0 Z M 4.667969 0 "/></g></g></g><g fill="#121420" fill-opacity="1"><g transform="translate(68.211406, 135.75002)"><g><path d="M 4.667969 0 L 4.667969 -54.464844 L 14.160156 -54.464844 L 14.160156 -9.492188 L 36.824219 -9.492188 L 36.824219 0 Z M 4.667969 0 "/></g></g></g><g fill="#121420" fill-opacity="1"><g transform="translate(108.94016, 135.75002)"><g><path d="M 4.667969 0 L 4.667969 -54.464844 L 24.511719 -54.464844 C 27.375 -54.464844 29.96875 -53.875 32.296875 -52.695312 C 34.621094 -51.519531 36.46875 -49.835938 37.835938 -47.648438 C 39.203125 -45.460938 39.890625 -42.867188 39.890625 -39.867188 C 39.890625 -38.546875 39.691406 -37.210938 39.296875 -35.867188 C 38.902344 -34.523438 38.300781 -33.316406 37.492188 -32.238281 C 36.6875 -31.164062 35.648438 -30.371094 34.382812 -29.855469 C 36.074219 -29.441406 37.453125 -28.683594 38.519531 -27.582031 C 39.585938 -26.480469 40.414062 -25.203125 41.007812 -23.75 C 41.597656 -22.296875 42.007812 -20.808594 42.230469 -19.285156 C 42.453125 -17.761719 42.566406 -16.347656 42.566406 -15.039062 C 42.566406 -12.179688 41.851562 -9.617188 40.421875 -7.351562 C 38.996094 -5.085938 37.082031 -3.292969 34.679688 -1.976562 C 32.28125 -0.660156 29.628906 0 26.71875 0 Z M 14.160156 -8.125 L 25.761719 -8.125 C 27.300781 -8.125 28.699219 -8.503906 29.953125 -9.261719 C 31.210938 -10.019531 32.214844 -11.0625 32.96875 -12.386719 C 33.71875 -13.707031 34.097656 -15.210938 34.097656 -16.890625 C 34.097656 -18.339844 33.71875 -19.710938 32.96875 -21.003906 C 32.214844 -22.296875 31.210938 -23.347656 29.953125 -24.152344 C 28.699219 -24.960938 27.300781 -25.363281 25.761719 -25.363281 L 14.160156 -25.363281 Z M 14.160156 -33.359375 L 23.4375 -33.359375 C 25.347656 -33.359375 26.984375 -33.957031 28.347656 -35.152344 C 29.714844 -36.347656 30.394531 -37.941406 30.394531 -39.933594 C 30.394531 -42.03125 29.714844 -43.613281 28.347656 -44.683594 C 26.984375 -45.753906 25.347656 -46.289062 23.4375 -46.289062 L 14.160156 -46.289062 Z M 14.160156 -33.359375 "/></g></g></g><g fill="#121420" fill-opacity="1"><g transform="translate(154.609271, 135.75002)"><g><path d="M 22.886719 -54.464844 L 33.804688 -54.464844 L 53.59375 0 L 43.523438 0 L 40.015625 -9.648438 L 16.6875 -9.648438 L 13.183594 0 L 3.113281 0 Z M 20.164062 -19.140625 L 36.527344 -19.140625 L 28.320312 -41.601562 Z M 20.164062 -19.140625 "/></g></g></g><g fill="#121420" fill-opacity="1"><g transform="translate(211.326106, 135.75002)"><g><path d="M 4.667969 0 L 4.667969 -54.464844 L 14.160156 -54.464844 L 14.160156 -9.492188 L 36.824219 -9.492188 L 36.824219 0 Z M 4.667969 0 "/></g></g></g><g fill="#121420" fill-opacity="1"><g transform="translate(252.05486, 135.75002)"><g><path d="M 22.886719 -54.464844 L 33.804688 -54.464844 L 53.59375 0 L 43.523438 0 L 40.015625 -9.648438 L 16.6875 -9.648438 L 13.183594 0 L 3.113281 0 Z M 20.164062 -19.140625 L 36.527344 -19.140625 L 28.320312 -41.601562 Z M 20.164062 -19.140625 "/></g></g></g><g fill="#121420" fill-opacity="1"><g transform="translate(308.771707, 135.75002)"><g><path d="M 4.667969 0 L 4.667969 -54.464844 L 14.160156 -54.464844 L 14.160156 -9.492188 L 36.824219 -9.492188 L 36.824219 0 Z M 4.667969 0 "/></g></g></g></svg>